<?xml version="1.0" encoding="UTF-8"?>
<svg width="22px" height="21px" viewBox="0 0 22 21" version="1.1" xmlns="http://www.w3.org/2000/svg" xmlns:xlink="http://www.w3.org/1999/xlink">
    <!-- Generator: Sketch 51.3 (57544) - http://www.bohemiancoding.com/sketch -->
    <title>xxxhdpi/favoriet copy 3</title>
    <desc>Created with Sketch.</desc>
    <defs></defs>
    <g id="Phone" stroke="none" stroke-width="1" fill="none" fill-rule="evenodd">
        <g id="SNG-favorieten" transform="translate(-320.000000, -130.000000)" fill="#0079D3" fill-rule="nonzero">
            <g id="favoriet" transform="translate(320.000000, 130.000000)">
                <path d="M10.7967353,17.7221247 L5.14680148,20.6924707 C4.55662073,21.002747 3.995684,20.5903592 4.10765984,19.9374901 L5.18670116,13.6461963 C5.2054826,13.5366923 5.13961341,13.3349707 5.06053092,13.2578843 L0.489638504,8.80236533 C0.0121722174,8.33695074 0.2310374,7.67603339 0.886555283,7.58078104 L7.20337329,6.6628937 C7.31332159,6.64691725 7.48481556,6.52193654 7.53369124,6.42290363 L10.3586581,0.698895522 C10.6537485,0.100977083 11.3499513,0.10489557 11.6431078,0.698895522 L14.4680747,6.42290363 C14.5172451,6.5225337 14.6891034,6.647013 14.7983927,6.6628937 L21.1152106,7.58078104 C21.7750528,7.67666173 21.9864647,8.34000085 21.5121275,8.80236533 L16.941235,13.2578843 C16.8616757,13.3354355 16.796396,13.5373486 16.8150648,13.6461963 L17.8941061,19.9374901 C18.0068207,20.594666 17.4412775,21.0007137 16.8549645,20.6924707 L11.2050307,17.7221247 C11.10669,17.6704239 10.8944866,17.6707338 10.7967353,17.7221247 Z"></path>
            </g>
        </g>
    </g>
</svg>